<svg clip-rule="evenodd" fill-rule="evenodd" height="512" image-rendering="optimizeQuality" shape-rendering="geometricPrecision" text-rendering="geometricPrecision" viewBox="0 0 512 512" width="512" xmlns="http://www.w3.org/2000/svg" xmlns:xodm="http://www.corel.com/coreldraw/odm/2003"><g id="Layer_x0020_1"><path d="m256 0c141.39 0 256 114.61 256 256s-114.61 256-256 256-256-114.61-256-256 114.61-256 256-256zm-33.14 380.34c0 1.77 1.44 3.21 3.21 3.21h45.8c1.78 0 3.21-1.44 3.21-3.21v-125.35h33.21c1.67 0 3.06-1.27 3.2-2.94l3.19-37.76c.16-1.88-1.31-3.49-3.2-3.49h-36.4v-26.79c0-6.28 5.09-11.37 11.37-11.37h25.6c1.77 0 3.21-1.44 3.21-3.22v-37.76c0-1.77-1.44-3.21-3.22-3.21h-43.23c-25.38 0-45.95 20.57-45.95 45.94v36.41h-22.9c-1.78 0-3.22 1.44-3.22 3.22v37.76c0 1.78 1.44 3.21 3.22 3.21h22.9z"/></g></svg>