<svg id="Layer_1" height="512" viewBox="0 0 512 512" width="512" xmlns="http://www.w3.org/2000/svg" data-name="Layer 1"><path d="m256.084.107c141.384 0 256 114.587 256 255.964s-114.615 256.034-256 256.034-255.999-114.658-255.999-256.034 114.615-255.964 255.999-255.964zm0 94.5c-89.053 0-161.5 72.45-161.5 161.5s72.45 161.5 161.5 161.5 161.5-72.45 161.5-161.5-72.447-161.5-161.5-161.5zm41.239 284.279a129.883 129.883 0 0 0 54.733-35.909 134.583 134.583 0 0 0 -23.153-11.928 150.908 150.908 0 0 1 -11.134 22.733 106.6 106.6 0 0 1 -20.446 25.1zm-137.21-35.911a129.9 129.9 0 0 0 54.739 35.909 106.5 106.5 0 0 1 -20.446-25.1 150.433 150.433 0 0 1 -11.134-22.733 134.681 134.681 0 0 0 -23.159 11.928zm54.739-209.647a129.846 129.846 0 0 0 -54.739 35.909 134.425 134.425 0 0 0 23.159 11.929 150.619 150.619 0 0 1 11.134-22.737 106.628 106.628 0 0 1 20.446-25.1zm127.407 117.733h43.234a128.852 128.852 0 0 0 -26.917-74.037 144.243 144.243 0 0 1 -26.259 13.631 209.673 209.673 0 0 1 9.942 60.406zm0 10.091a209.643 209.643 0 0 1 -9.942 60.405 143.689 143.689 0 0 1 26.259 13.634 128.858 128.858 0 0 0 26.917-74.039zm-172.344 0h-43.231a128.816 128.816 0 0 0 26.916 74.039 143.7 143.7 0 0 1 26.25-13.634 209.779 209.779 0 0 1 -9.936-60.405zm0-10.091a209.809 209.809 0 0 1 9.936-60.406 144.255 144.255 0 0 1 -26.25-13.631 128.81 128.81 0 0 0 -26.917 74.037zm86.171-46.525a212.388 212.388 0 0 1 -66.757-10.409 199.594 199.594 0 0 0 -9.32 56.934h152.153a199.56 199.56 0 0 0 -9.314-56.934 212.4 212.4 0 0 1 -66.762 10.409zm0-77.94c-19.792 0-38.622 13.158-53.037 37.047a140.328 140.328 0 0 0 -10.308 21 202.272 202.272 0 0 0 63.345 9.8 202.322 202.322 0 0 0 63.35-9.8 141.494 141.494 0 0 0 -10.308-21c-14.415-23.889-33.254-37.047-53.042-37.047zm0 181.077a212.4 212.4 0 0 1 66.762 10.416 199.622 199.622 0 0 0 9.314-56.937h-152.153a199.656 199.656 0 0 0 9.32 56.937 212.387 212.387 0 0 1 66.757-10.416zm0 77.943c19.788 0 38.627-13.154 53.042-37.046a141.313 141.313 0 0 0 10.308-21 209.6 209.6 0 0 0 -126.695 0 140.435 140.435 0 0 0 10.308 21c14.415 23.892 33.245 37.046 53.037 37.046zm95.972-216.379a129.827 129.827 0 0 0 -54.733-35.909 106.727 106.727 0 0 1 20.446 25.1 151.1 151.1 0 0 1 11.134 22.737 134.657 134.657 0 0 0 23.153-11.928z" fill-rule="evenodd"/></svg>